<?xml version="1.0" encoding="UTF-8"?>
<svg version="1.1" xmlns="http://www.w3.org/2000/svg" width="256" height="256">
<path d="M0 0 C10.55399394 7.13942628 20.3674714 14.87367213 29.65625 23.59375 C31.95412963 25.73315518 34.29158807 27.7851899 36.6875 29.8125 C40.09517861 32.75775876 43.02549284 35.98802525 45.9296875 39.42578125 C47.41752706 41.22118266 47.41752706 41.22118266 49.375 43.125 C49.38086624 42.55616592 49.38673248 41.98733185 49.39277649 41.40126038 C49.45702569 35.44679546 49.54152429 29.49285536 49.63745117 23.53881836 C49.67057536 21.32079007 49.69864569 19.10268003 49.72143555 16.88452148 C49.75521202 13.68438076 49.80753953 10.48498087 49.86328125 7.28515625 C49.86967117 6.30354019 49.8760611 5.32192413 49.88264465 4.31056213 C50.07845097 -4.99096018 51.95261393 -12.2846127 58.40625 -19.1484375 C64.57115494 -24.55496128 71.61731081 -26.25101256 79.6484375 -26.15625 C86.84989446 -25.4134063 93.448225 -22.14550349 98.375 -16.875 C102.93730015 -9.36208183 104.5262351 -3.02821842 104.51544189 5.72026062 C104.51841302 6.47701783 104.52138414 7.23377503 104.5244453 8.01346427 C104.5331053 10.54503888 104.53463826 13.07656606 104.53613281 15.6081543 C104.54076293 17.42515666 104.54578785 19.24215806 104.55117798 21.05915833 C104.56428612 25.99326026 104.57074396 30.92734859 104.57518864 35.86146522 C104.57812219 38.94626342 104.58222756 42.03105792 104.58669281 45.11585426 C104.60036416 54.77369154 104.61003234 64.43152034 104.6138947 74.08936661 C104.61837336 85.22617978 104.6359139 96.36287008 104.6648953 107.49964589 C104.6865358 116.11554549 104.69660026 124.73141059 104.69793582 133.34733707 C104.69898223 138.48963415 104.70485516 143.63181569 104.72275543 148.77408409 C104.73927685 153.61435783 104.74137188 158.45442966 104.73261642 163.2947216 C104.7318482 165.06595654 104.73616028 166.83720252 104.74607468 168.60840988 C104.86644142 191.46203053 104.86644142 191.46203053 96.33984375 200.3671875 C92.01406576 204.23716781 87.30635884 207.69099813 81.375 208.125 C80.73046875 208.186875 80.0859375 208.24875 79.421875 208.3125 C71.6483218 208.7473841 65.48243779 206.17708156 59.0625 201.9375 C53.33448417 195.94306483 50.46703307 189.44217462 50.015625 181.22265625 C47.84659571 146.95428868 36.80799702 115.28761009 15.375 88.125 C14.61445313 87.155625 13.85390625 86.18625 13.0703125 85.1875 C5.82713169 76.16485263 -1.62492176 67.43569479 -10.625 60.125 C-11.13192383 59.7110498 -11.63884766 59.29709961 -12.16113281 58.87060547 C-13.91279378 57.44630575 -15.67343723 56.03390484 -17.4375 54.625 C-17.98172607 54.18615479 -18.52595215 53.74730957 -19.08666992 53.29516602 C-22.70843413 50.44052436 -26.46649072 47.91066428 -30.3659668 45.44726562 C-31.84518867 44.51122498 -31.84518867 44.51122498 -33.35429382 43.55627441 C-34.10362686 43.08395386 -34.8529599 42.6116333 -35.625 42.125 C-35.62223462 42.85976311 -35.61946924 43.59452621 -35.61662006 44.35155487 C-35.55030939 62.24644863 -35.50069469 80.1413178 -35.46956348 98.03630829 C-35.45410774 106.69026609 -35.43304298 115.34414178 -35.39868164 123.99804688 C-35.36873965 131.54254732 -35.3494156 139.08698828 -35.34273452 146.6315465 C-35.33883037 150.62475481 -35.32968218 154.61779298 -35.30780983 158.61094666 C-35.28736873 162.37347105 -35.2811815 166.13575604 -35.28567696 169.89833069 C-35.28446484 171.92932191 -35.26836275 173.96028738 -35.2517395 175.99121094 C-35.2866837 186.35107652 -37.11863593 194.5539259 -44.625 202.125 C-51.65460067 207.0554838 -58.09950208 208.8776523 -66.625 208.125 C-74.47228157 206.4612191 -80.91212951 203.04118499 -85.4375 196.3125 C-89.25342083 190.20442194 -89.92405865 183.20932561 -89.88569641 176.16897583 C-89.88952196 175.40965535 -89.89334751 174.65033487 -89.89728898 173.86800468 C-89.90753617 171.34568742 -89.90364273 168.82360134 -89.8996582 166.30126953 C-89.90400928 164.48382356 -89.90919374 162.66637942 -89.91514587 160.84893799 C-89.92850476 155.92738886 -89.92911799 151.00591668 -89.92658257 146.08435297 C-89.92551073 141.96918431 -89.93040172 137.85403108 -89.935188 133.73886573 C-89.94627248 124.0269078 -89.94672658 114.31498854 -89.94067383 104.60302734 C-89.93463456 94.59873278 -89.94694632 84.59457888 -89.9682439 74.59030831 C-89.98588243 65.98708042 -89.99185769 57.38389722 -89.98860615 48.78065193 C-89.98679671 43.64846906 -89.98939564 38.51638654 -90.00332069 33.38422012 C-90.01593103 28.55620555 -90.01392465 23.72840962 -90.00090981 18.90039825 C-89.99855143 17.13400319 -90.00125207 15.36759259 -90.00953293 13.60121536 C-90.05975735 2.05017693 -90.04593531 -8.7207699 -82.4375 -18.1171875 C-60.86780845 -39.03606939 -19.95147917 -13.20134369 0 0 Z " fill="#A4193C" transform="translate(120.625,36.875)"/>
<path d="M0 0 C6.91954581 7.40230482 8.84012064 15.59872219 8.82794189 25.47026062 C8.83091302 26.22701783 8.83388414 26.98377503 8.8369453 27.76346427 C8.8456053 30.29503888 8.84713826 32.82656606 8.84863281 35.3581543 C8.85326293 37.17515666 8.85828785 38.99215806 8.86367798 40.80915833 C8.87678612 45.74326026 8.88324396 50.67734859 8.88768864 55.61146522 C8.89062219 58.69626342 8.89472756 61.78105792 8.89919281 64.86585426 C8.91286416 74.52369154 8.92253234 84.18152034 8.9263947 93.83936661 C8.93087336 104.97617978 8.9484139 116.11287008 8.9773953 127.24964589 C8.9990358 135.86554549 9.00910026 144.48141059 9.01043582 153.09733707 C9.01148223 158.23963415 9.01735516 163.38181569 9.03525543 168.52408409 C9.05177685 173.36435783 9.05387188 178.20442966 9.04511642 183.0447216 C9.0443482 184.81595654 9.04866028 186.58720252 9.05857468 188.35840988 C9.17894142 211.21203053 9.17894142 211.21203053 0.65234375 220.1171875 C-3.67343424 223.98716781 -8.38114116 227.44099813 -14.3125 227.875 C-14.95703125 227.936875 -15.6015625 227.99875 -16.265625 228.0625 C-24.0391782 228.4973841 -30.20506221 225.92708156 -36.625 221.6875 C-44.01507403 213.95370159 -45.04496517 206.89092619 -44.97192383 196.42797852 C-44.98039561 195.08906065 -44.99104818 193.7501551 -45.00369263 192.41127014 C-45.03176966 188.78442198 -45.02936594 185.15816751 -45.02139878 181.53124356 C-45.01823743 177.6761759 -45.04345152 173.82128535 -45.06535339 169.96629333 C-45.10283059 162.61710551 -45.11493729 155.26810184 -45.1179778 147.91882795 C-45.1225723 139.75397589 -45.15540398 131.58932519 -45.19082093 123.42455792 C-45.25154877 109.30307356 -45.28156189 95.18179691 -45.28874803 81.06018949 C-45.29393834 72.06401458 -45.32374218 63.06887686 -45.39735508 54.07296467 C-45.43530105 49.38282098 -45.46280081 44.69264581 -45.48911095 40.00242424 C-45.50395184 37.88532068 -45.52399619 35.76824591 -45.54975319 33.65124702 C-45.58417764 30.79076198 -45.60021371 27.93072247 -45.61206055 25.07006836 C-45.62694456 24.25983908 -45.64182858 23.44960979 -45.65716362 22.61482811 C-45.65298467 13.92798704 -43.24778623 6.94732773 -37.28125 0.6015625 C-26.06023257 -9.23909168 -11.88456718 -7.62406197 0 0 Z " fill="#333D78" transform="translate(216.3125,17.125)"/>
<path d="M0 0 C12.69462203 8.02719598 24.44562612 17.02887382 35.39160156 27.3046875 C37.6894812 29.44409268 40.02693963 31.4961274 42.42285156 33.5234375 C46.38672327 36.95989177 49.77976697 40.79165621 53.11035156 44.8359375 C53.79426846 45.58000445 54.47818535 46.32407141 55.182827 47.09068584 C57.44290972 50.30957911 57.60532042 51.86336773 57.59136963 55.75215149 C57.59686829 56.93700638 57.60236694 58.12186127 57.60803223 59.34262085 C57.58646057 61.27931137 57.58646057 61.27931137 57.56445312 63.25512695 C57.56332424 64.63515693 57.56395931 66.01518931 57.56622314 67.3952179 C57.56736964 71.13468326 57.54387131 74.8736342 57.51592731 78.61298013 C57.49090267 82.52338816 57.48857083 86.43380831 57.48382568 90.34428406 C57.47139899 97.74616831 57.43858167 105.14781591 57.39842772 112.54959601 C57.35370037 120.97757136 57.33172057 129.40555807 57.31164598 137.83362257 C57.26984866 155.16786437 57.19950271 172.50187591 57.11035156 189.8359375 C56.78035156 189.8359375 56.45035156 189.8359375 56.11035156 189.8359375 C56.07594971 189.21887939 56.04154785 188.60182129 56.00610352 187.96606445 C53.89241076 152.50518189 43.34102498 120.00946421 21.11035156 91.8359375 C20.34980469 90.8665625 19.58925781 89.8971875 18.80566406 88.8984375 C11.56290541 79.87631599 4.11147792 71.14467238 -4.88964844 63.8359375 C-5.39125488 63.42730469 -5.89286133 63.01867187 -6.40966797 62.59765625 C-23.05354727 49.09972784 -39.95127416 38.488546 -60.30126953 31.625 C-70.12418017 28.26420542 -76.29923799 23.70027456 -81.76464844 14.7734375 C-84.50804288 7.43568368 -84.06053784 -1.58312366 -80.88964844 -8.6640625 C-77.07939313 -15.20052864 -71.15819179 -19.39074552 -63.99121094 -21.6875 C-43.83949656 -26.25721962 -16.68748202 -10.27983389 0 0 Z " fill="#DBA74B" transform="translate(114.8896484375,33.1640625)"/>
</svg>
