<?xml version="1.0" encoding="UTF-8"?>
<svg version="1.1" xmlns="http://www.w3.org/2000/svg" width="512" height="512">
<path d="M0 0 C1.0283823 -0.00644889 2.0567646 -0.01289778 3.11631 -0.0195421 C4.80860207 -0.01489629 4.80860207 -0.01489629 6.53508186 -0.01015663 C7.73483056 -0.01468774 8.93457926 -0.01921886 10.17068398 -0.02388728 C13.50219704 -0.03437029 16.83349449 -0.03585496 20.16500878 -0.03349853 C23.75746796 -0.03309076 27.3498948 -0.04412558 30.94233894 -0.05361366 C37.98103678 -0.07023325 45.01970113 -0.07572363 52.05841695 -0.07683842 C57.7790993 -0.07778841 63.49977059 -0.08189624 69.22044945 -0.08823967 C85.43566184 -0.10585444 101.65084775 -0.11507813 117.86606978 -0.11357872 C119.1775779 -0.11345885 119.1775779 -0.11345885 120.51558113 -0.11333656 C121.82868844 -0.11321392 121.82868844 -0.11321392 123.16832317 -0.1130888 C137.35808666 -0.11227576 151.54774403 -0.13141736 165.73747681 -0.1596133 C180.30349984 -0.18832883 194.86947109 -0.20215434 209.43552315 -0.20042574 C217.61484134 -0.1997614 225.79404827 -0.20527324 233.97334099 -0.22678185 C240.93695165 -0.24497614 247.90040063 -0.24935546 254.86402474 -0.235763 C258.4172266 -0.22922448 261.97011813 -0.22914753 265.52329063 -0.2464695 C269.3746962 -0.26505235 273.22564654 -0.2526687 277.07707405 -0.23720741 C278.20080732 -0.24749454 279.32454059 -0.25778167 280.48232639 -0.26838052 C287.86538574 -0.2026815 291.12810178 0.81396671 296.59279346 5.75924492 C301.79284854 12.86716087 300.58998082 22.04190083 300.50068855 30.42328453 C300.49927703 32.27665735 300.50007211 34.13003296 300.50290108 35.98340416 C300.50433255 40.99954607 300.47498622 46.01508719 300.44003129 51.03108978 C300.40872299 56.27877423 300.40583352 61.52647325 300.39990425 66.77423668 C300.38437898 76.70473997 300.34336822 86.63496723 300.2931568 96.5653491 C300.23722246 107.87362385 300.20976653 119.18191194 300.18467963 130.49029064 C300.1324513 153.74610295 300.0445345 177.00167044 299.9330616 200.25726891 C301.07106461 200.38229538 301.07106461 200.38229538 302.23205757 200.50984764 C305.73015677 200.89472985 309.22809359 201.28106955 312.72603035 201.66742516 C313.91901741 201.79846642 315.11200447 201.92950768 316.34114265 202.06451988 C323.65210785 202.87324946 330.95254468 203.73742544 338.2455616 204.69476891 C339.07842186 204.80280846 339.91128212 204.91084801 340.76938057 205.02216148 C346.95635798 205.86656407 351.05643477 208.12704385 355.2455616 212.88226891 C362.7023824 223.37705374 356.66661312 244.44186835 355.15083504 256.32343102 C354.85115747 258.72633204 354.55225405 261.12932972 354.25406075 263.53241539 C353.53016419 269.34732146 352.79755186 275.16107759 352.0602583 280.9742993 C351.46095676 285.70033593 350.86493421 290.42677518 350.27117348 295.15351105 C350.18629217 295.82913242 350.10141086 296.50475379 350.0139574 297.20084854 C349.84147213 298.57376453 349.66898806 299.94668067 349.49650517 301.31959695 C347.88383881 314.1519042 346.25897269 326.98264477 344.63040224 339.8129418 C343.14246373 351.53847793 341.67040898 363.26594502 340.20570514 374.99440413 C338.69813532 387.06487262 337.17964028 399.13392122 335.64943719 411.20154196 C334.79191004 417.96583918 333.93871485 424.7306146 333.09705544 431.49690628 C332.30635429 437.85252489 331.50030769 444.20608115 330.68393707 450.55845451 C330.38699265 452.88782795 330.09505378 455.21784585 329.80852127 457.54852295 C329.41626498 460.73259764 329.00589876 463.91383564 328.59095955 467.0950222 C328.48199152 468.01477001 328.37302349 468.93451781 328.26075339 469.88213676 C327.28761528 477.100848 325.44961429 483.41834449 319.6830616 488.19476891 C312.52087336 493.42458458 302.07776032 490.799782 294.00898933 489.75018883 C292.61042147 489.57541267 291.21174664 489.40149071 289.81297493 489.2283535 C286.03299149 488.75788463 282.25467062 488.27513683 278.47657084 487.78980231 C274.51285407 487.28245417 270.54783283 486.78550094 266.5829792 486.28713036 C259.92707197 485.44891268 253.27217972 484.60299086 246.61787605 483.75214195 C238.93572364 482.76993376 231.2522684 481.79851241 223.56797832 480.83318061 C216.16055172 479.9024954 208.75393481 478.96552363 201.3477211 478.02523804 C198.20259424 477.62596457 195.0572317 477.22862861 191.91166687 476.83282089 C188.20506701 476.36602933 184.49922086 475.89364174 180.79387474 475.41700363 C178.79307639 475.1608959 176.79159802 474.9101182 174.79010201 474.6595211 C162.66596007 473.08860903 162.66596007 473.08860903 157.9330616 471.25726891 C155.9330616 468.25726891 155.9330616 468.25726891 155.9330616 464.25726891 C153.01830032 463.78646899 150.10641453 463.35502472 147.1830616 462.94476891 C146.3580616 462.80748375 145.5330616 462.67019859 144.6830616 462.52875328 C142.34147765 462.21717155 140.28275226 461.99866592 137.9330616 462.25726891 C135.41022624 464.51327213 135.41022624 464.51327213 133.9330616 467.25726891 C125.22773489 471.60993226 106.18694904 466.03013061 96.71821785 464.82367516 C94.80829057 464.58302989 92.89833206 464.34263242 90.98834419 464.10246849 C87.01536225 463.60186082 83.04280055 463.09807103 79.07051277 462.5919857 C73.99550426 461.94570391 68.91947733 461.30784934 63.84310436 460.67238522 C59.91089884 460.1791474 55.97928756 459.68129798 52.0478363 459.18208694 C50.17623338 458.94502157 48.30444586 458.70940853 46.43246841 458.47531891 C43.81754113 458.14765728 41.20348566 457.81372944 38.58955574 457.47821617 C37.82836937 457.38411964 37.067183 457.29002312 36.28293037 457.19307518 C27.82407903 456.09243724 20.79324816 454.89056714 14.9330616 448.25726891 C8.26152144 438.24995867 13.6472948 420.59974859 15.08979988 409.22113609 C15.43767082 406.47082786 15.77747594 403.71959863 16.11665535 400.96820641 C16.3362329 399.21554272 16.55626751 397.46293623 16.7768116 395.71039391 C16.87788216 394.88968407 16.97895271 394.06897423 17.08308601 393.22339439 C17.81804797 387.48729616 17.81804797 387.48729616 18.9330616 385.25726891 C17.94635979 385.55794273 16.95965797 385.85861656 15.94305611 386.16840172 C6.63297374 389.00404163 -2.6801629 391.82943997 -11.99636745 394.64490318 C-16.78554361 396.09260377 -21.57358072 397.54386022 -26.35917473 399.00336266 C-30.979656 400.41236451 -35.60291715 401.81186861 -40.22823715 403.20490074 C-41.99024467 403.73737588 -43.75123323 404.27323522 -45.51115417 404.81256676 C-47.98097391 405.56880997 -50.45417982 406.3128158 -52.92851067 407.05414391 C-53.65140282 407.27856163 -54.37429497 407.50297935 -55.11909294 407.73419762 C-60.90120083 409.44438232 -66.64819199 410.48532668 -72.1919384 407.63226891 C-73.12393059 407.17980797 -73.12393059 407.17980797 -74.0747509 406.71820641 C-80.25083368 402.18907903 -82.2775795 396.75356788 -84.33402824 389.65497398 C-84.62277824 388.70214027 -84.91152824 387.74930656 -85.20902824 386.76759911 C-86.16266166 383.6080211 -87.09528302 380.44264641 -88.0278759 377.27680016 C-88.70100356 375.03063464 -89.37539653 372.78484797 -90.05097771 370.53941917 C-91.8370123 364.59026025 -93.60521587 358.63594194 -95.36991692 352.68042564 C-97.10818611 346.82579169 -98.86373641 340.97635078 -100.61771965 335.12640953 C-103.74391662 324.6922783 -106.84218174 314.25009272 -109.93029213 303.80463409 C-112.06114253 296.61064953 -114.22426127 289.42719717 -116.41114426 282.25005245 C-117.85201358 277.51476984 -119.27963558 272.77554961 -120.70535469 268.03568649 C-121.38374885 265.79231186 -122.06820341 263.55076009 -122.75899696 261.31117249 C-123.71034887 258.22442265 -124.64021777 255.13195289 -125.56547356 252.0372982 C-125.85107769 251.13003424 -126.13668182 250.22277027 -126.43094063 249.28801346 C-127.90063588 244.28336647 -128.51897784 241.1421034 -126.0669384 236.25726891 C-124.4419384 234.38226891 -124.4419384 234.38226891 -123.0669384 233.25726891 C-123.4278759 232.12547203 -123.7888134 230.99367516 -124.1606884 229.82758141 C-124.62958822 228.34585798 -125.09833004 226.86408454 -125.5669384 225.38226891 C-125.80541496 224.63590172 -126.04389153 223.88953453 -126.28959465 223.12055016 C-128.0669384 217.48383141 -128.0669384 217.48383141 -128.0669384 215.25726891 C-129.1600634 215.19539391 -130.2531884 215.13351891 -131.3794384 215.06976891 C-135.0669384 214.25726891 -135.0669384 214.25726891 -136.68432426 212.03413963 C-138.00799362 209.37565482 -138.9967054 206.84842988 -139.87626457 204.01483727 C-140.19637001 202.99284737 -140.51647545 201.97085747 -140.84628105 200.91789818 C-141.18077766 199.82203896 -141.51527428 198.72617973 -141.85990715 197.59711266 C-142.21079903 196.4562571 -142.5616909 195.31540154 -142.92321587 194.13997459 C-143.66225279 191.72618554 -144.39749025 189.31123038 -145.12919426 186.89520836 C-146.2445575 183.22726291 -147.38466666 179.56761784 -148.52592278 175.90765953 C-149.24296036 173.55461348 -149.958503 171.20111127 -150.67240715 168.84711266 C-151.01297646 167.76542305 -151.35354576 166.68373344 -151.70443535 165.56926537 C-154.06648061 157.63070587 -156.41316134 148.04528441 -152.4419384 140.25726891 C-147.64067526 134.19251547 -141.72654618 132.24119348 -134.57108879 130.16034508 C-133.63180031 129.8783979 -132.69251183 129.59645073 -131.72476006 129.3059597 C-128.62413781 128.37781135 -125.51947522 127.46402956 -122.41459465 126.55023766 C-120.23597601 125.90101803 -118.05763047 125.25088134 -115.87954521 124.5998745 C-110.13544327 122.88560503 -104.38784301 121.18337376 -98.63938713 119.48377037 C-92.87166655 117.77643201 -87.10706682 116.05863068 -81.34232903 114.34125328 C-74.8177432 112.39787406 -68.29292003 110.45535824 -61.76543999 108.52171898 C-60.7667662 108.22567929 -59.7680924 107.92963961 -58.73915577 107.62462902 C-56.77544233 107.04260385 -54.81157142 106.46110966 -52.84753323 105.88018131 C-47.75679116 104.37013895 -42.67601452 102.83270637 -37.60474968 101.25839806 C-36.55193778 100.93280812 -35.49912588 100.60721819 -34.41441059 100.27176189 C-32.40110674 99.64756664 -30.3892428 99.01870168 -28.37908077 98.3844614 C-27.47789737 98.10536584 -26.57671396 97.82627028 -25.64822197 97.53871727 C-24.85777709 97.29068006 -24.06733221 97.04264284 -23.25293446 96.78708935 C-21.0669384 96.25726891 -21.0669384 96.25726891 -17.0669384 96.25726891 C-17.07693115 94.73963196 -17.07693115 94.73963196 -17.08712578 93.19133568 C-17.14801853 83.64277304 -17.19295022 74.09424996 -17.22237492 64.54553699 C-17.23801115 59.63678374 -17.25921213 54.72818761 -17.29325676 49.81952477 C-17.32592302 45.07977892 -17.34380678 40.34018393 -17.35157013 35.60033417 C-17.3571006 33.79468029 -17.36790027 31.9890344 -17.38412857 30.18344498 C-17.40599959 27.6485472 -17.40890131 25.11426779 -17.40751457 22.57929039 C-17.4183004 21.83769676 -17.42908623 21.09610313 -17.4401989 20.33203697 C-17.40200514 13.85294788 -15.89735978 9.36929358 -11.6294384 4.44476891 C-7.74321675 1.12726262 -5.11431696 0.00811106 0 0 Z " fill="#A3183C" transform="translate(154.06693840026855,-0.25726890563964844)"/>
<path d="M0 0 C1.0283823 -0.00644889 2.0567646 -0.01289778 3.11631 -0.0195421 C4.80860207 -0.01489629 4.80860207 -0.01489629 6.53508186 -0.01015663 C7.73483056 -0.01468774 8.93457926 -0.01921886 10.17068398 -0.02388728 C13.50219704 -0.03437029 16.83349449 -0.03585496 20.16500878 -0.03349853 C23.75746796 -0.03309076 27.3498948 -0.04412558 30.94233894 -0.05361366 C37.98103678 -0.07023325 45.01970113 -0.07572363 52.05841695 -0.07683842 C57.7790993 -0.07778841 63.49977059 -0.08189624 69.22044945 -0.08823967 C85.43566184 -0.10585444 101.65084775 -0.11507813 117.86606978 -0.11357872 C119.1775779 -0.11345885 119.1775779 -0.11345885 120.51558113 -0.11333656 C121.82868844 -0.11321392 121.82868844 -0.11321392 123.16832317 -0.1130888 C137.35808666 -0.11227576 151.54774403 -0.13141736 165.73747681 -0.1596133 C180.30349984 -0.18832883 194.86947109 -0.20215434 209.43552315 -0.20042574 C217.61484134 -0.1997614 225.79404827 -0.20527324 233.97334099 -0.22678185 C240.93695165 -0.24497614 247.90040063 -0.24935546 254.86402474 -0.235763 C258.4172266 -0.22922448 261.97011813 -0.22914753 265.52329063 -0.2464695 C269.3746962 -0.26505235 273.22564654 -0.2526687 277.07707405 -0.23720741 C278.20080732 -0.24749454 279.32454059 -0.25778167 280.48232639 -0.26838052 C287.86538574 -0.2026815 291.12810178 0.81396671 296.59279346 5.75924492 C301.79284854 12.86716087 300.58998082 22.04190083 300.50068855 30.42328453 C300.49927703 32.27665735 300.50007211 34.13003296 300.50290108 35.98340416 C300.50433255 40.99954607 300.47498622 46.01508719 300.44003129 51.03108978 C300.40872299 56.27877423 300.40583352 61.52647325 300.39990425 66.77423668 C300.38437898 76.70473997 300.34336822 86.63496723 300.2931568 96.5653491 C300.23722246 107.87362385 300.20976653 119.18191194 300.18467963 130.49029064 C300.1324513 153.74610295 300.0445345 177.00167044 299.9330616 200.25726891 C301.07106461 200.38229538 301.07106461 200.38229538 302.23205757 200.50984764 C305.73015677 200.89472985 309.22809359 201.28106955 312.72603035 201.66742516 C313.91901741 201.79846642 315.11200447 201.92950768 316.34114265 202.06451988 C323.65210785 202.87324946 330.95254468 203.73742544 338.2455616 204.69476891 C339.07842186 204.80280846 339.91128212 204.91084801 340.76938057 205.02216148 C346.95635798 205.86656407 351.05643477 208.12704385 355.2455616 212.88226891 C362.7023824 223.37705374 356.66661312 244.44186835 355.15083504 256.32343102 C354.85115747 258.72633204 354.55225405 261.12932972 354.25406075 263.53241539 C353.53016419 269.34732146 352.79755186 275.16107759 352.0602583 280.9742993 C351.46095676 285.70033593 350.86493421 290.42677518 350.27117348 295.15351105 C350.18629217 295.82913242 350.10141086 296.50475379 350.0139574 297.20084854 C349.84147213 298.57376453 349.66898806 299.94668067 349.49650517 301.31959695 C347.88383881 314.1519042 346.25897269 326.98264477 344.63040224 339.8129418 C343.14246373 351.53847793 341.67040898 363.26594502 340.20570514 374.99440413 C338.69813532 387.06487262 337.17964028 399.13392122 335.64943719 411.20154196 C334.79191004 417.96583918 333.93871485 424.7306146 333.09705544 431.49690628 C332.30635429 437.85252489 331.50030769 444.20608115 330.68393707 450.55845451 C330.38699265 452.88782795 330.09505378 455.21784585 329.80852127 457.54852295 C329.41626498 460.73259764 329.00589876 463.91383564 328.59095955 467.0950222 C328.48199152 468.01477001 328.37302349 468.93451781 328.26075339 469.88213676 C327.28761528 477.100848 325.44961429 483.41834449 319.6830616 488.19476891 C312.52087336 493.42458458 302.07776032 490.799782 294.00898933 489.75018883 C292.61042147 489.57541267 291.21174664 489.40149071 289.81297493 489.2283535 C286.03299149 488.75788463 282.25467062 488.27513683 278.47657084 487.78980231 C274.51285407 487.28245417 270.54783283 486.78550094 266.5829792 486.28713036 C259.92707197 485.44891268 253.27217972 484.60299086 246.61787605 483.75214195 C238.93572364 482.76993376 231.2522684 481.79851241 223.56797832 480.83318061 C216.16055172 479.9024954 208.75393481 478.96552363 201.3477211 478.02523804 C198.20259424 477.62596457 195.0572317 477.22862861 191.91166687 476.83282089 C188.20506701 476.36602933 184.49922086 475.89364174 180.79387474 475.41700363 C178.79307639 475.1608959 176.79159802 474.9101182 174.79010201 474.6595211 C162.66596007 473.08860903 162.66596007 473.08860903 157.9330616 471.25726891 C155.9330616 468.25726891 155.9330616 468.25726891 155.9330616 464.25726891 C153.01830032 463.78646899 150.10641453 463.35502472 147.1830616 462.94476891 C146.3580616 462.80748375 145.5330616 462.67019859 144.6830616 462.52875328 C142.34147765 462.21717155 140.28275226 461.99866592 137.9330616 462.25726891 C135.41022624 464.51327213 135.41022624 464.51327213 133.9330616 467.25726891 C125.22773489 471.60993226 106.18694904 466.03013061 96.71821785 464.82367516 C94.80829057 464.58302989 92.89833206 464.34263242 90.98834419 464.10246849 C87.01536225 463.60186082 83.04280055 463.09807103 79.07051277 462.5919857 C73.99550426 461.94570391 68.91947733 461.30784934 63.84310436 460.67238522 C59.91089884 460.1791474 55.97928756 459.68129798 52.0478363 459.18208694 C50.17623338 458.94502157 48.30444586 458.70940853 46.43246841 458.47531891 C43.81754113 458.14765728 41.20348566 457.81372944 38.58955574 457.47821617 C37.82836937 457.38411964 37.067183 457.29002312 36.28293037 457.19307518 C27.82407903 456.09243724 20.79324816 454.89056714 14.9330616 448.25726891 C8.26152144 438.24995867 13.6472948 420.59974859 15.08979988 409.22113609 C15.43767082 406.47082786 15.77747594 403.71959863 16.11665535 400.96820641 C16.3362329 399.21554272 16.55626751 397.46293623 16.7768116 395.71039391 C16.87788216 394.88968407 16.97895271 394.06897423 17.08308601 393.22339439 C17.81804797 387.48729616 17.81804797 387.48729616 18.9330616 385.25726891 C17.94635979 385.55794273 16.95965797 385.85861656 15.94305611 386.16840172 C6.63297374 389.00404163 -2.6801629 391.82943997 -11.99636745 394.64490318 C-16.78554361 396.09260377 -21.57358072 397.54386022 -26.35917473 399.00336266 C-30.979656 400.41236451 -35.60291715 401.81186861 -40.22823715 403.20490074 C-41.99024467 403.73737588 -43.75123323 404.27323522 -45.51115417 404.81256676 C-47.98097391 405.56880997 -50.45417982 406.3128158 -52.92851067 407.05414391 C-53.65140282 407.27856163 -54.37429497 407.50297935 -55.11909294 407.73419762 C-60.90120083 409.44438232 -66.64819199 410.48532668 -72.1919384 407.63226891 C-73.12393059 407.17980797 -73.12393059 407.17980797 -74.0747509 406.71820641 C-80.25083368 402.18907903 -82.2775795 396.75356788 -84.33402824 389.65497398 C-84.62277824 388.70214027 -84.91152824 387.74930656 -85.20902824 386.76759911 C-86.16266166 383.6080211 -87.09528302 380.44264641 -88.0278759 377.27680016 C-88.70100356 375.03063464 -89.37539653 372.78484797 -90.05097771 370.53941917 C-91.8370123 364.59026025 -93.60521587 358.63594194 -95.36991692 352.68042564 C-97.10818611 346.82579169 -98.86373641 340.97635078 -100.61771965 335.12640953 C-103.74391662 324.6922783 -106.84218174 314.25009272 -109.93029213 303.80463409 C-112.06114253 296.61064953 -114.22426127 289.42719717 -116.41114426 282.25005245 C-117.85201358 277.51476984 -119.27963558 272.77554961 -120.70535469 268.03568649 C-121.38374885 265.79231186 -122.06820341 263.55076009 -122.75899696 261.31117249 C-123.71034887 258.22442265 -124.64021777 255.13195289 -125.56547356 252.0372982 C-125.85107769 251.13003424 -126.13668182 250.22277027 -126.43094063 249.28801346 C-127.89726318 244.29485126 -128.54601572 241.1207466 -126.0669384 236.25726891 C-123.50616075 233.69649126 -121.63811237 233.94275527 -118.1372509 233.79633141 C-114.9952439 234.49587259 -114.01272387 235.68661737 -112.0669384 238.25726891 C-110.85191716 241.18868834 -110.02448493 244.19836201 -109.1919384 247.25726891 C-108.67405317 249.06986721 -108.15581421 250.88236448 -107.6372509 252.69476891 C-107.37718254 253.62031578 -107.11711418 254.54586266 -106.84916496 255.49945641 C-105.63864021 259.76727401 -104.3513489 264.01122816 -103.0669384 268.25726891 C-102.56651969 269.9238099 -102.06652091 271.59047705 -101.5669384 273.25726891 C-101.3194384 274.08226891 -101.0719384 274.90726891 -100.8169384 275.75726891 C-98.5669384 283.2572689 -98.5669384 283.2572689 -97.8599987 285.61380577 C-97.35714226 287.28994876 -96.85423865 288.9660776 -96.35127068 290.64218712 C-95.18675021 294.52311948 -94.02263495 298.40416905 -92.86137199 302.2860775 C-89.72562794 312.76195448 -86.56495053 323.23020894 -83.39815331 333.69672966 C-81.92089567 338.580282 -80.44517438 343.46429888 -78.96942329 348.34830666 C-77.69325388 352.5713108 -76.41602533 356.79398975 -75.13676262 361.01605797 C-73.88255148 365.15565047 -72.63100281 369.29603926 -71.38131142 373.43699837 C-70.90781226 375.00423424 -70.43333444 376.57117479 -69.95785713 378.13781166 C-69.29977791 380.30659145 -68.64510449 382.47637105 -67.99125481 384.64642906 C-67.6185244 385.8785009 -67.24579399 387.11057274 -66.86176872 388.37998009 C-66.0669384 391.25726891 -66.0669384 391.25726891 -66.0669384 393.25726891 C-36.24043413 384.45490388 -6.4339324 375.59305516 23.32832527 366.57562828 C33.66978208 363.44321355 44.0159923 360.33175529 54.38643074 357.29657555 C58.84525716 355.98995862 63.29660554 354.65953355 67.7455616 353.31976891 C69.43956809 352.81064127 71.13357863 352.30152708 72.82759285 351.79242516 C73.67144539 351.53864098 74.51529793 351.2848568 75.38472176 351.02338219 C79.56692174 349.76607777 83.75003181 348.51180922 87.9330616 347.25726891 C89.59973275 346.75728384 91.26639941 346.25728383 92.9330616 345.75726891 C102.9330616 342.7572689 102.9330616 342.7572689 105.29046822 342.05008507 C106.96372452 341.54808402 108.63695563 341.04599903 110.31015205 340.54379845 C114.23515605 339.36586134 118.16040344 338.18878189 122.08711433 337.01654625 C132.08189679 334.02977326 142.0642842 331.0031051 152.04199791 327.95988274 C156.43896059 326.61920463 160.83659464 325.28072952 165.23417282 323.94207191 C169.02578806 322.78762826 172.81690739 321.63159664 176.60713387 320.47260094 C180.33139154 319.33388013 184.05685587 318.19919144 187.78318787 317.06727791 C189.1906623 316.63894323 190.59768811 316.20913146 192.00424576 315.77779579 C193.9520822 315.18068731 195.90163921 314.58920017 197.85127449 313.99799156 C198.95677147 313.66079094 200.06226845 313.32359032 201.20126534 312.97617149 C203.9330616 312.25726891 203.9330616 312.25726891 206.9330616 312.25726891 C205.67519234 305.96792259 203.92368819 300.0854211 201.7377491 294.05414391 C200.93946268 291.27951732 200.87114088 289.1200503 200.9330616 286.25726891 C199.92716988 286.26393074 198.92127815 286.27059258 197.88490486 286.27745628 C188.4089885 286.33825048 178.93311167 286.38323341 169.4570446 286.41270542 C164.5851981 286.42836662 159.71350895 286.44961322 154.84175301 286.48358727 C150.14092396 286.51616446 145.44024633 286.5341185 140.73931313 286.54190063 C138.94513503 286.54744709 137.15096528 286.55827788 135.35685158 286.57445908 C132.84528836 286.59621171 130.33435218 286.59923676 127.82271004 286.59784508 C126.70816696 286.61402382 126.70816696 286.61402382 125.57110786 286.6305294 C122.40940236 286.61155125 120.2537851 286.43804442 117.4731617 284.87074852 C115.47356154 282.77587553 115.39485851 281.62250051 115.4330616 278.75726891 C115.41759285 277.59711266 115.41759285 277.59711266 115.4018116 276.41351891 C115.9330616 274.25726891 115.9330616 274.25726891 117.54707146 272.64742374 C120.71839888 270.79970607 122.97580214 270.87254895 126.64015388 270.85854149 C127.64740517 270.84857895 127.64740517 270.84857895 128.67500496 270.83841515 C130.93077325 270.81973765 133.18601349 270.82241421 135.44185066 270.82489586 C137.08436386 270.81579209 138.72687025 270.80537953 140.3693676 270.79376316 C144.76979858 270.76625921 149.17009832 270.75667993 153.57060432 270.75079155 C157.69914383 270.74255767 161.8275263 270.71818805 165.95601082 270.69513512 C178.03162736 270.63712018 190.10735718 270.6050306 202.1830616 270.56976891 C242.6493116 270.41508141 242.6493116 270.41508141 283.9330616 270.25726891 C283.9330616 186.43726891 283.9330616 102.61726891 283.9330616 16.25726891 C190.2130616 16.25726891 96.4930616 16.25726891 -0.0669384 16.25726891 C-0.3969384 100.40726891 -0.7269384 184.55726891 -1.0669384 271.25726891 C28.9630616 271.25726891 58.9930616 271.25726891 89.9330616 271.25726891 C93.9330616 273.25726891 93.9330616 273.25726891 94.9330616 275.25726891 C95.39728647 281.1065023 95.39728647 281.1065023 94.9330616 283.25726891 C92.48082945 285.941114 90.38855994 286.47261173 86.89258003 286.64494896 C85.21828812 286.66581555 83.54374005 286.67005636 81.8693409 286.66132164 C80.49544701 286.67161652 80.49544701 286.67161652 79.09379768 286.68211937 C76.06480099 286.70042558 73.03632052 286.69654352 70.00728035 286.69086266 C67.8998415 286.69542347 65.79240414 286.70072874 63.68496895 286.70674706 C59.26573335 286.71568631 54.84667836 286.7132467 50.42744637 286.70331383 C44.77143439 286.69183851 39.11604806 286.71200975 33.46011829 286.74123096 C29.106285 286.75960431 24.7526012 286.75929795 20.39873886 286.75359344 C18.31399154 286.75344029 16.22923404 286.75947998 14.14452362 286.77188492 C11.224276 286.78680968 8.30517825 286.77610566 5.3849659 286.75897789 C4.52809685 286.76864586 3.6712278 286.77831383 2.78839302 286.78827477 C-3.74051678 286.70833545 -7.61607904 285.13429026 -12.58818626 280.98898697 C-17.95331217 275.1727652 -16.72531747 266.88418628 -16.63456535 259.49970055 C-16.6331538 257.89277758 -16.63394895 256.28585138 -16.63677788 254.67893028 C-16.63820928 250.33002535 -16.6088647 245.98181349 -16.57390809 241.63306928 C-16.54259827 237.08339491 -16.53971021 232.5337037 -16.53378105 227.98393822 C-16.51825617 219.37439687 -16.47724613 210.76517393 -16.4270336 202.15577263 C-16.37109788 192.35173063 -16.34364301 182.54767323 -16.31855643 172.74351132 C-16.26632903 152.58125298 -16.17841316 132.41928102 -16.0669384 112.25726891 C-19.83067619 113.34595151 -23.59341325 114.43805605 -27.3560009 115.53070641 C-28.93006706 115.98594688 -28.93006706 115.98594688 -30.53593254 116.45038414 C-37.54104605 118.48691117 -44.50146605 120.63580364 -51.4419384 122.88226891 C-58.63534624 125.19713954 -65.84238708 127.36658551 -73.13261223 129.35468102 C-82.27163311 131.84732276 -91.35948271 134.50739497 -100.44291496 137.19476891 C-103.82720226 138.18698248 -107.21619936 139.16063807 -110.60717583 140.12962914 C-113.65575045 141.00460172 -116.69991553 141.89429365 -119.74342155 142.78671837 C-121.2470027 143.22432341 -122.75232811 143.65598051 -124.25935173 144.08157921 C-126.37593196 144.68044327 -128.48528255 145.30028275 -130.59428215 145.92523766 C-131.81881096 146.27868248 -133.04333977 146.6321273 -134.30497551 146.99628258 C-137.15695691 147.92502402 -137.15695691 147.92502402 -137.82426262 150.01531029 C-138.12865995 152.82748308 -137.57236894 154.69520649 -136.71171379 157.38959312 C-136.39130623 158.41100395 -136.07089867 159.43241478 -135.74078178 160.48477745 C-135.38564003 161.58274651 -135.03049828 162.68071556 -134.66459465 163.81195641 C-134.30804298 164.94626091 -133.95149132 166.08056541 -133.58413506 167.24924278 C-132.44222649 170.88005364 -131.28720134 174.50648487 -130.1294384 178.13226891 C-128.97581482 181.75107477 -127.82533641 185.37071272 -126.68545341 188.99387169 C-125.97584127 191.2491308 -125.25832401 193.50192134 -124.53204155 195.75186729 C-124.20848183 196.77958244 -123.8849221 197.80729759 -123.55155754 198.86615562 C-123.26430305 199.76454155 -122.97704857 200.66292747 -122.6810894 201.58853722 C-121.98673808 204.60577139 -121.82200268 207.17089656 -122.0669384 210.25726891 C-124.55778088 213.62723225 -125.95282705 215.07537318 -130.1294384 215.75726891 C-133.42141821 215.19693192 -134.62916519 214.48696069 -137.0669384 212.25726891 C-138.10395622 210.08337975 -138.10395622 210.08337975 -138.86625481 207.52972984 C-139.15980858 206.57153343 -139.45336235 205.61333702 -139.75581169 204.62610435 C-140.05699913 203.59173241 -140.35818657 202.55736046 -140.6685009 201.49164391 C-140.99103844 200.42488426 -141.31357597 199.35812462 -141.64588737 198.25903893 C-142.67451885 194.8456047 -143.68337331 191.42667954 -144.6919384 188.00726891 C-145.37815549 185.71912335 -146.06564109 183.43135781 -146.7544384 181.14398766 C-148.54377874 175.18712689 -150.31549764 169.22537904 -152.0669384 163.25726891 C-152.27789146 162.54824425 -152.48884453 161.83921959 -152.70619011 161.10870934 C-154.67101747 154.42096853 -155.76948838 146.6905322 -152.4419384 140.25726891 C-147.64067526 134.19251547 -141.72654618 132.24119348 -134.57108879 130.16034508 C-133.63180031 129.8783979 -132.69251183 129.59645073 -131.72476006 129.3059597 C-128.62413781 128.37781135 -125.51947522 127.46402956 -122.41459465 126.55023766 C-120.23597601 125.90101803 -118.05763047 125.25088134 -115.87954521 124.5998745 C-110.13544327 122.88560503 -104.38784301 121.18337376 -98.63938713 119.48377037 C-92.87166655 117.77643201 -87.10706682 116.05863068 -81.34232903 114.34125328 C-74.8177432 112.39787406 -68.29292003 110.45535824 -61.76543999 108.52171898 C-60.7667662 108.22567929 -59.7680924 107.92963961 -58.73915577 107.62462902 C-56.77544233 107.04260385 -54.81157142 106.46110966 -52.84753323 105.88018131 C-47.75679116 104.37013895 -42.67601452 102.83270637 -37.60474968 101.25839806 C-36.55193778 100.93280812 -35.49912588 100.60721819 -34.41441059 100.27176189 C-32.40110674 99.64756664 -30.3892428 99.01870168 -28.37908077 98.3844614 C-27.47789737 98.10536584 -26.57671396 97.82627028 -25.64822197 97.53871727 C-24.85777709 97.29068006 -24.06733221 97.04264284 -23.25293446 96.78708935 C-21.0669384 96.25726891 -21.0669384 96.25726891 -17.0669384 96.25726891 C-17.07693115 94.73963196 -17.07693115 94.73963196 -17.08712578 93.19133568 C-17.14801853 83.64277304 -17.19295022 74.09424996 -17.22237492 64.54553699 C-17.23801115 59.63678374 -17.25921213 54.72818761 -17.29325676 49.81952477 C-17.32592302 45.07977892 -17.34380678 40.34018393 -17.35157013 35.60033417 C-17.3571006 33.79468029 -17.36790027 31.9890344 -17.38412857 30.18344498 C-17.40599959 27.6485472 -17.40890131 25.11426779 -17.40751457 22.57929039 C-17.4183004 21.83769676 -17.42908623 21.09610313 -17.4401989 20.33203697 C-17.40200514 13.85294788 -15.89735978 9.36929358 -11.6294384 4.44476891 C-7.74321675 1.12726262 -5.11431696 0.00811106 0 0 Z " fill="#06543A" transform="translate(154.06693840026855,-0.25726890563964844)"/>
<path d="M0 0 C1.0283823 -0.00644889 2.0567646 -0.01289778 3.11631 -0.0195421 C4.80860207 -0.01489629 4.80860207 -0.01489629 6.53508186 -0.01015663 C7.73483056 -0.01468774 8.93457926 -0.01921886 10.17068398 -0.02388728 C13.50219704 -0.03437029 16.83349449 -0.03585496 20.16500878 -0.03349853 C23.75746796 -0.03309076 27.3498948 -0.04412558 30.94233894 -0.05361366 C37.98103678 -0.07023325 45.01970113 -0.07572363 52.05841695 -0.07683842 C57.7790993 -0.07778841 63.49977059 -0.08189624 69.22044945 -0.08823967 C85.43566184 -0.10585444 101.65084775 -0.11507813 117.86606978 -0.11357872 C119.1775779 -0.11345885 119.1775779 -0.11345885 120.51558113 -0.11333656 C121.82868844 -0.11321392 121.82868844 -0.11321392 123.16832317 -0.1130888 C137.35808666 -0.11227576 151.54774403 -0.13141736 165.73747681 -0.1596133 C180.30349984 -0.18832883 194.86947109 -0.20215434 209.43552315 -0.20042574 C217.61484134 -0.1997614 225.79404827 -0.20527324 233.97334099 -0.22678185 C240.93695165 -0.24497614 247.90040063 -0.24935546 254.86402474 -0.235763 C258.4172266 -0.22922448 261.97011813 -0.22914753 265.52329063 -0.2464695 C269.3746962 -0.26505235 273.22564654 -0.2526687 277.07707405 -0.23720741 C278.20080732 -0.24749454 279.32454059 -0.25778167 280.48232639 -0.26838052 C287.86538574 -0.2026815 291.12810178 0.81396671 296.59279346 5.75924492 C301.79284854 12.86716087 300.58998082 22.04190083 300.50068855 30.42328453 C300.49927703 32.27665735 300.50007211 34.13003296 300.50290108 35.98340416 C300.50433255 40.99954607 300.47498622 46.01508719 300.44003129 51.03108978 C300.40872299 56.27877423 300.40583352 61.52647325 300.39990425 66.77423668 C300.38437898 76.70473997 300.34336822 86.63496723 300.2931568 96.5653491 C300.23722246 107.87362385 300.20976653 119.18191194 300.18467963 130.49029064 C300.1324513 153.74610295 300.0445345 177.00167044 299.9330616 200.25726891 C301.07106461 200.38229538 301.07106461 200.38229538 302.23205757 200.50984764 C305.73015677 200.89472985 309.22809359 201.28106955 312.72603035 201.66742516 C313.91901741 201.79846642 315.11200447 201.92950768 316.34114265 202.06451988 C323.65210785 202.87324946 330.95254468 203.73742544 338.2455616 204.69476891 C339.07842186 204.80280846 339.91128212 204.91084801 340.76938057 205.02216148 C346.95635798 205.86656407 351.05643477 208.12704385 355.2455616 212.88226891 C362.7023824 223.37705374 356.66661312 244.44186835 355.15083504 256.32343102 C354.85115747 258.72633204 354.55225405 261.12932972 354.25406075 263.53241539 C353.53016419 269.34732146 352.79755186 275.16107759 352.0602583 280.9742993 C351.46095676 285.70033593 350.86493421 290.42677518 350.27117348 295.15351105 C350.18629217 295.82913242 350.10141086 296.50475379 350.0139574 297.20084854 C349.84147213 298.57376453 349.66898806 299.94668067 349.49650517 301.31959695 C347.88383881 314.1519042 346.25897269 326.98264477 344.63040224 339.8129418 C343.14246373 351.53847793 341.67040898 363.26594502 340.20570514 374.99440413 C338.69813532 387.06487262 337.17964028 399.13392122 335.64943719 411.20154196 C334.79191004 417.96583918 333.93871485 424.7306146 333.09705544 431.49690628 C332.30635429 437.85252489 331.50030769 444.20608115 330.68393707 450.55845451 C330.38699265 452.88782795 330.09505378 455.21784585 329.80852127 457.54852295 C329.41626498 460.73259764 329.00589876 463.91383564 328.59095955 467.0950222 C328.48199152 468.01477001 328.37302349 468.93451781 328.26075339 469.88213676 C327.28761528 477.100848 325.44961429 483.41834449 319.6830616 488.19476891 C312.52087336 493.42458458 302.07776032 490.799782 294.00898933 489.75018883 C292.61042147 489.57541267 291.21174664 489.40149071 289.81297493 489.2283535 C286.03299149 488.75788463 282.25467062 488.27513683 278.47657084 487.78980231 C274.51285407 487.28245417 270.54783283 486.78550094 266.5829792 486.28713036 C259.92707197 485.44891268 253.27217972 484.60299086 246.61787605 483.75214195 C238.93572364 482.76993376 231.2522684 481.79851241 223.56797832 480.83318061 C216.16055172 479.9024954 208.75393481 478.96552363 201.3477211 478.02523804 C198.20259424 477.62596457 195.0572317 477.22862861 191.91166687 476.83282089 C188.20506701 476.36602933 184.49922086 475.89364174 180.79387474 475.41700363 C178.79307639 475.1608959 176.79159802 474.9101182 174.79010201 474.6595211 C162.66596007 473.08860903 162.66596007 473.08860903 157.9330616 471.25726891 C155.45267253 467.5366853 155.46968957 465.6593032 155.9330616 461.25726891 C157.3705616 458.81976891 157.3705616 458.81976891 159.9330616 457.25726891 C167.54915083 456.80209175 174.99887668 457.88911512 182.53666878 458.87988853 C186.88214858 459.45087434 191.23009703 460.00266243 195.57759285 460.55805016 C196.57023643 460.6854055 197.56288002 460.81276085 198.58560371 460.94397545 C208.07636166 462.15789645 217.57264574 463.3250321 227.06978035 464.48773766 C228.68575949 464.68577393 230.30173645 464.88382801 231.91771126 465.08189964 C238.4208083 465.8787822 244.92393569 466.6754076 251.42744637 467.46890831 C256.0585012 468.03413706 260.68923293 468.60196171 265.31978035 469.17133141 C266.42538622 469.30698226 266.42538622 469.30698226 267.55332756 469.44537354 C277.24233901 470.63668066 286.91892691 471.88976337 296.56237984 473.41342735 C297.30063499 473.5260894 298.03889015 473.63875145 298.79951668 473.7548275 C299.41265221 473.85266533 300.02578773 473.95050316 300.65750313 474.05130577 C304.08611865 474.36163328 307.49106218 474.28615659 310.9330616 474.25726891 C311.0472393 473.31212929 311.16141701 472.36698967 311.27905464 471.39320946 C312.37850203 462.2951114 313.48077242 453.19735879 314.58551502 444.09990215 C315.15280067 439.42766314 315.71923434 434.75532481 316.2834034 430.08270836 C318.69281123 410.13248539 321.16945792 390.19674194 323.89608002 370.28717041 C325.58622294 357.943652 327.14832308 345.59079264 328.58836555 333.21527672 C330.41474668 317.54219392 332.33268664 301.88751598 334.4955616 286.25726891 C336.38572306 272.58582026 338.11051182 258.89910436 339.7455616 245.19476891 C339.85683388 244.2683358 339.96810616 243.34190269 340.08275032 242.38739586 C340.39639022 239.77013104 340.70647571 237.15247398 341.01509285 234.53461266 C341.10857002 233.75416084 341.2020472 232.97370903 341.29835701 232.16960716 C341.68740705 228.82933001 341.9330616 225.62637918 341.9330616 222.25726891 C332.50957279 220.77433929 323.07213692 219.42307585 313.6205616 218.13226891 C312.2826577 217.94877195 310.944767 217.76517865 309.60688972 217.58148766 C306.38240811 217.13914 303.15779877 216.69774896 299.9330616 216.25726891 C299.93972343 216.9285482 299.94638527 217.5998275 299.95324898 218.29144859 C300.01979567 225.29970049 300.06494252 232.3078621 300.09785652 239.31635094 C300.11291093 241.92934378 300.1333589 244.54231148 300.15937996 247.15521812 C300.19590938 250.91846496 300.212822 254.68137666 300.22603035 258.44476891 C300.24151421 259.60653648 300.25699806 260.76830406 300.27295113 261.96527672 C300.27442638 269.13042492 300.03955445 275.61111805 295.17915535 281.31586266 C294.58231941 281.77090172 293.98548347 282.22594078 293.3705616 282.69476891 C292.77114754 283.16785484 292.17173347 283.64094078 291.55415535 284.12836266 C288.00836082 286.5976027 285.39874329 286.37828926 281.09663582 286.3707943 C280.39408669 286.37094032 279.69153755 286.37108635 278.96769905 286.3712368 C276.64101787 286.37053905 274.31441633 286.36275309 271.9877491 286.35492516 C270.37635021 286.35306049 268.76495076 286.35163681 267.1535511 286.35063744 C262.90877408 286.34681611 258.66403118 286.33698908 254.41926765 286.32593346 C250.08923492 286.31571109 245.75919667 286.31113804 241.42915535 286.30609703 C232.93044176 286.29536649 224.43175592 286.27829466 215.9330616 286.25726891 C216.35966072 287.48413414 216.78625984 288.71099937 217.22578621 289.97504234 C217.78352658 291.60545059 218.34087918 293.23599152 218.89790535 294.86664391 C219.32009346 296.0758651 219.32009346 296.0758651 219.75081062 297.309515 C222.26712303 304.72085612 223.32855656 311.07078402 220.8080616 318.63226891 C216.19069878 325.09657685 211.01824441 327.2961246 203.63228035 329.42914391 C202.24687176 329.84839008 202.24687176 329.84839008 200.83347511 330.27610588 C197.76649115 331.20042684 194.69374347 332.10378928 191.6205616 333.00726891 C189.44077388 333.65975183 187.26137887 334.31354796 185.08235359 334.96857262 C179.24402339 336.71973552 173.40054315 338.4530797 167.55589485 340.18301964 C161.52423584 341.97153841 155.49740388 343.77616777 149.47017097 345.57953453 C139.83121488 348.46171525 130.18969095 351.33513263 120.54634285 354.20258141 C108.49023182 357.78840032 96.44366548 361.40514699 84.4018116 365.03851891 C82.72767348 365.54329044 81.05352014 366.04801153 79.37935066 366.55267906 C76.22910856 367.50233887 73.0788752 368.45202765 69.92866707 369.40180016 C69.18389107 369.62633873 68.43911507 369.8508773 67.6717701 370.08222008 C66.17535718 370.53344085 64.67897877 370.98477609 63.18263435 371.43622398 C58.36099948 372.89080572 53.53801414 374.34080858 48.7143116 375.78851891 C47.52994514 376.14627403 46.34557869 376.50402916 45.12532234 376.87262535 C44.06220833 377.19098351 42.99909431 377.50934166 41.90376472 377.83734703 C40.98438118 378.11389122 40.06499763 378.39043541 39.11775398 378.67535973 C36.9330616 379.25726891 36.9330616 379.25726891 34.9330616 379.25726891 C34.83509285 380.30656578 34.7371241 381.35586266 34.6361866 382.43695641 C33.82038219 390.95109064 32.92448663 399.45207391 31.9096241 407.94476891 C31.77457466 409.0767823 31.77457466 409.0767823 31.63679695 410.23166466 C31.1814506 414.03889977 30.72084303 417.84542694 30.25435066 421.65131187 C30.08206676 423.07985 29.90986285 424.50839777 29.7377491 425.93695641 C29.50547615 427.83550377 29.50547615 427.83550377 29.26851082 429.77240562 C28.96141925 432.96267135 28.86972218 436.05524609 28.9330616 439.25726891 C44.6374485 441.52243555 60.35515356 443.58545928 76.11296272 445.43982506 C78.81045426 445.75755073 81.50765743 446.07762559 84.20479012 446.39838219 C91.82707369 447.30389716 99.44940927 448.20587094 107.07692146 449.06638145 C109.96421583 449.39531125 112.84981734 449.73755456 115.73512459 450.08344078 C117.69086588 450.31333939 119.64863316 450.52579259 121.60640144 450.73773766 C122.77251961 450.87953453 123.93863777 451.02133141 125.14009285 451.16742516 C126.1453199 451.28223228 127.15054695 451.39703941 128.18623543 451.51532555 C131.57774968 452.43140517 133.4256964 453.81976064 135.9330616 456.25726891 C137.0580616 459.69476891 137.0580616 459.69476891 136.9330616 463.25726891 C134.83456612 465.98213768 134.83456612 465.98213768 131.9330616 468.25726891 C128.87420845 468.61235619 128.87420845 468.61235619 125.38398933 468.22186852 C124.73690986 468.15643569 124.08983038 468.09100286 123.42314243 468.02358723 C121.25571286 467.79600897 119.09552808 467.52774488 116.9330616 467.25726891 C115.3853885 467.0817168 113.83754125 466.9076942 112.28953743 466.73508263 C107.09341432 466.14182616 101.90608598 465.48468577 96.71821785 464.82367516 C94.80829057 464.58302989 92.89833206 464.34263242 90.98834419 464.10246849 C87.01536225 463.60186082 83.04280055 463.09807103 79.07051277 462.5919857 C73.99550426 461.94570391 68.91947733 461.30784934 63.84310436 460.67238522 C59.91089884 460.1791474 55.97928756 459.68129798 52.0478363 459.18208694 C50.17623338 458.94502157 48.30444586 458.70940853 46.43246841 458.47531891 C43.81754113 458.14765728 41.20348566 457.81372944 38.58955574 457.47821617 C37.82836937 457.38411964 37.067183 457.29002312 36.28293037 457.19307518 C27.82407903 456.09243724 20.79324816 454.89056714 14.9330616 448.25726891 C8.26152144 438.24995867 13.6472948 420.59974859 15.08979988 409.22113609 C15.43767082 406.47082786 15.77747594 403.71959863 16.11665535 400.96820641 C16.3362329 399.21554272 16.55626751 397.46293623 16.7768116 395.71039391 C16.87788216 394.88968407 16.97895271 394.06897423 17.08308601 393.22339439 C17.81804797 387.48729616 17.81804797 387.48729616 18.9330616 385.25726891 C17.94635979 385.55794273 16.95965797 385.85861656 15.94305611 386.16840172 C6.63297374 389.00404163 -2.6801629 391.82943997 -11.99636745 394.64490318 C-16.78554361 396.09260377 -21.57358072 397.54386022 -26.35917473 399.00336266 C-30.979656 400.41236451 -35.60291715 401.81186861 -40.22823715 403.20490074 C-41.99024467 403.73737588 -43.75123323 404.27323522 -45.51115417 404.81256676 C-47.98097391 405.56880997 -50.45417982 406.3128158 -52.92851067 407.05414391 C-53.65140282 407.27856163 -54.37429497 407.50297935 -55.11909294 407.73419762 C-60.90120083 409.44438232 -66.64819199 410.48532668 -72.1919384 407.63226891 C-73.12393059 407.17980797 -73.12393059 407.17980797 -74.0747509 406.71820641 C-80.25083368 402.18907903 -82.2775795 396.75356788 -84.33402824 389.65497398 C-84.62277824 388.70214027 -84.91152824 387.74930656 -85.20902824 386.76759911 C-86.16266166 383.6080211 -87.09528302 380.44264641 -88.0278759 377.27680016 C-88.70100356 375.03063464 -89.37539653 372.78484797 -90.05097771 370.53941917 C-91.8370123 364.59026025 -93.60521587 358.63594194 -95.36991692 352.68042564 C-97.10818611 346.82579169 -98.86373641 340.97635078 -100.61771965 335.12640953 C-103.74391662 324.6922783 -106.84218174 314.25009272 -109.93029213 303.80463409 C-112.06114253 296.61064953 -114.22426127 289.42719717 -116.41114426 282.25005245 C-117.85201358 277.51476984 -119.27963558 272.77554961 -120.70535469 268.03568649 C-121.38374885 265.79231186 -122.06820341 263.55076009 -122.75899696 261.31117249 C-123.71034887 258.22442265 -124.64021777 255.13195289 -125.56547356 252.0372982 C-125.85107769 251.13003424 -126.13668182 250.22277027 -126.43094063 249.28801346 C-127.89726318 244.29485126 -128.54601572 241.1207466 -126.0669384 236.25726891 C-123.50616075 233.69649126 -121.63811237 233.94275527 -118.1372509 233.79633141 C-114.9952439 234.49587259 -114.01272387 235.68661737 -112.0669384 238.25726891 C-110.85191716 241.18868834 -110.02448493 244.19836201 -109.1919384 247.25726891 C-108.67405317 249.06986721 -108.15581421 250.88236448 -107.6372509 252.69476891 C-107.37718254 253.62031578 -107.11711418 254.54586266 -106.84916496 255.49945641 C-105.63864021 259.76727401 -104.3513489 264.01122816 -103.0669384 268.25726891 C-102.56651969 269.9238099 -102.06652091 271.59047705 -101.5669384 273.25726891 C-101.3194384 274.08226891 -101.0719384 274.90726891 -100.8169384 275.75726891 C-98.5669384 283.2572689 -98.5669384 283.2572689 -97.8599987 285.61380577 C-97.35714226 287.28994876 -96.85423865 288.9660776 -96.35127068 290.64218712 C-95.18675021 294.52311948 -94.02263495 298.40416905 -92.86137199 302.2860775 C-89.72562794 312.76195448 -86.56495053 323.23020894 -83.39815331 333.69672966 C-81.92089567 338.580282 -80.44517438 343.46429888 -78.96942329 348.34830666 C-77.69325388 352.5713108 -76.41602533 356.79398975 -75.13676262 361.01605797 C-73.88255148 365.15565047 -72.63100281 369.29603926 -71.38131142 373.43699837 C-70.90781226 375.00423424 -70.43333444 376.57117479 -69.95785713 378.13781166 C-69.29977791 380.30659145 -68.64510449 382.47637105 -67.99125481 384.64642906 C-67.6185244 385.8785009 -67.24579399 387.11057274 -66.86176872 388.37998009 C-66.0669384 391.25726891 -66.0669384 391.25726891 -66.0669384 393.25726891 C-36.24043413 384.45490388 -6.4339324 375.59305516 23.32832527 366.57562828 C33.66978208 363.44321355 44.0159923 360.33175529 54.38643074 357.29657555 C58.84525716 355.98995862 63.29660554 354.65953355 67.7455616 353.31976891 C69.43956809 352.81064127 71.13357863 352.30152708 72.82759285 351.79242516 C73.67144539 351.53864098 74.51529793 351.2848568 75.38472176 351.02338219 C79.56692174 349.76607777 83.75003181 348.51180922 87.9330616 347.25726891 C89.59973275 346.75728384 91.26639941 346.25728383 92.9330616 345.75726891 C102.9330616 342.7572689 102.9330616 342.7572689 105.29046822 342.05008507 C106.96372452 341.54808402 108.63695563 341.04599903 110.31015205 340.54379845 C114.23515605 339.36586134 118.16040344 338.18878189 122.08711433 337.01654625 C132.08189679 334.02977326 142.0642842 331.0031051 152.04199791 327.95988274 C156.43896059 326.61920463 160.83659464 325.28072952 165.23417282 323.94207191 C169.02578806 322.78762826 172.81690739 321.63159664 176.60713387 320.47260094 C180.33139154 319.33388013 184.05685587 318.19919144 187.78318787 317.06727791 C189.1906623 316.63894323 190.59768811 316.20913146 192.00424576 315.77779579 C193.9520822 315.18068731 195.90163921 314.58920017 197.85127449 313.99799156 C198.95677147 313.66079094 200.06226845 313.32359032 201.20126534 312.97617149 C203.9330616 312.25726891 203.9330616 312.25726891 206.9330616 312.25726891 C205.67519234 305.96792259 203.92368819 300.0854211 201.7377491 294.05414391 C200.93946268 291.27951732 200.87114088 289.1200503 200.9330616 286.25726891 C199.92716988 286.26393074 198.92127815 286.27059258 197.88490486 286.27745628 C188.4089885 286.33825048 178.93311167 286.38323341 169.4570446 286.41270542 C164.5851981 286.42836662 159.71350895 286.44961322 154.84175301 286.48358727 C150.14092396 286.51616446 145.44024633 286.5341185 140.73931313 286.54190063 C138.94513503 286.54744709 137.15096528 286.55827788 135.35685158 286.57445908 C132.84528836 286.59621171 130.33435218 286.59923676 127.82271004 286.59784508 C126.70816696 286.61402382 126.70816696 286.61402382 125.57110786 286.6305294 C122.40940236 286.61155125 120.2537851 286.43804442 117.4731617 284.87074852 C115.47356154 282.77587553 115.39485851 281.62250051 115.4330616 278.75726891 C115.41759285 277.59711266 115.41759285 277.59711266 115.4018116 276.41351891 C115.9330616 274.25726891 115.9330616 274.25726891 117.54707146 272.64742374 C120.71839888 270.79970607 122.97580214 270.87254895 126.64015388 270.85854149 C127.64740517 270.84857895 127.64740517 270.84857895 128.67500496 270.83841515 C130.93077325 270.81973765 133.18601349 270.82241421 135.44185066 270.82489586 C137.08436386 270.81579209 138.72687025 270.80537953 140.3693676 270.79376316 C144.76979858 270.76625921 149.17009832 270.75667993 153.57060432 270.75079155 C157.69914383 270.74255767 161.8275263 270.71818805 165.95601082 270.69513512 C178.03162736 270.63712018 190.10735718 270.6050306 202.1830616 270.56976891 C242.6493116 270.41508141 242.6493116 270.41508141 283.9330616 270.25726891 C283.9330616 186.43726891 283.9330616 102.61726891 283.9330616 16.25726891 C190.2130616 16.25726891 96.4930616 16.25726891 -0.0669384 16.25726891 C-0.3969384 100.40726891 -0.7269384 184.55726891 -1.0669384 271.25726891 C28.9630616 271.25726891 58.9930616 271.25726891 89.9330616 271.25726891 C93.9330616 273.25726891 93.9330616 273.25726891 94.9330616 275.25726891 C95.39728647 281.1065023 95.39728647 281.1065023 94.9330616 283.25726891 C92.48082945 285.941114 90.38855994 286.47261173 86.89258003 286.64494896 C85.21828812 286.66581555 83.54374005 286.67005636 81.8693409 286.66132164 C80.49544701 286.67161652 80.49544701 286.67161652 79.09379768 286.68211937 C76.06480099 286.70042558 73.03632052 286.69654352 70.00728035 286.69086266 C67.8998415 286.69542347 65.79240414 286.70072874 63.68496895 286.70674706 C59.26573335 286.71568631 54.84667836 286.7132467 50.42744637 286.70331383 C44.77143439 286.69183851 39.11604806 286.71200975 33.46011829 286.74123096 C29.106285 286.75960431 24.7526012 286.75929795 20.39873886 286.75359344 C18.31399154 286.75344029 16.22923404 286.75947998 14.14452362 286.77188492 C11.224276 286.78680968 8.30517825 286.77610566 5.3849659 286.75897789 C4.52809685 286.76864586 3.6712278 286.77831383 2.78839302 286.78827477 C-3.74051678 286.70833545 -7.61607904 285.13429026 -12.58818626 280.98898697 C-17.95331217 275.1727652 -16.72531747 266.88418628 -16.63456535 259.49970055 C-16.6331538 257.89277758 -16.63394895 256.28585138 -16.63677788 254.67893028 C-16.63820928 250.33002535 -16.6088647 245.98181349 -16.57390809 241.63306928 C-16.54259827 237.08339491 -16.53971021 232.5337037 -16.53378105 227.98393822 C-16.51825617 219.37439687 -16.47724613 210.76517393 -16.4270336 202.15577263 C-16.37109788 192.35173063 -16.34364301 182.54767323 -16.31855643 172.74351132 C-16.26632903 152.58125298 -16.17841316 132.41928102 -16.0669384 112.25726891 C-19.83067619 113.34595151 -23.59341325 114.43805605 -27.3560009 115.53070641 C-28.93006706 115.98594688 -28.93006706 115.98594688 -30.53593254 116.45038414 C-37.54104605 118.48691117 -44.50146605 120.63580364 -51.4419384 122.88226891 C-58.63534624 125.19713954 -65.84238708 127.36658551 -73.13261223 129.35468102 C-82.27163311 131.84732276 -91.35948271 134.50739497 -100.44291496 137.19476891 C-103.82720226 138.18698248 -107.21619936 139.16063807 -110.60717583 140.12962914 C-113.65575045 141.00460172 -116.69991553 141.89429365 -119.74342155 142.78671837 C-121.2470027 143.22432341 -122.75232811 143.65598051 -124.25935173 144.08157921 C-126.37593196 144.68044327 -128.48528255 145.30028275 -130.59428215 145.92523766 C-131.81881096 146.27868248 -133.04333977 146.6321273 -134.30497551 146.99628258 C-137.15695691 147.92502402 -137.15695691 147.92502402 -137.82426262 150.01531029 C-138.12865995 152.82748308 -137.57236894 154.69520649 -136.71171379 157.38959312 C-136.39130623 158.41100395 -136.07089867 159.43241478 -135.74078178 160.48477745 C-135.38564003 161.58274651 -135.03049828 162.68071556 -134.66459465 163.81195641 C-134.30804298 164.94626091 -133.95149132 166.08056541 -133.58413506 167.24924278 C-132.44222649 170.88005364 -131.28720134 174.50648487 -130.1294384 178.13226891 C-128.97581482 181.75107477 -127.82533641 185.37071272 -126.68545341 188.99387169 C-125.97584127 191.2491308 -125.25832401 193.50192134 -124.53204155 195.75186729 C-124.20848183 196.77958244 -123.8849221 197.80729759 -123.55155754 198.86615562 C-123.26430305 199.76454155 -122.97704857 200.66292747 -122.6810894 201.58853722 C-121.98673808 204.60577139 -121.82200268 207.17089656 -122.0669384 210.25726891 C-124.55778088 213.62723225 -125.95282705 215.07537318 -130.1294384 215.75726891 C-133.42141821 215.19693192 -134.62916519 214.48696069 -137.0669384 212.25726891 C-138.10395622 210.08337975 -138.10395622 210.08337975 -138.86625481 207.52972984 C-139.15980858 206.57153343 -139.45336235 205.61333702 -139.75581169 204.62610435 C-140.05699913 203.59173241 -140.35818657 202.55736046 -140.6685009 201.49164391 C-140.99103844 200.42488426 -141.31357597 199.35812462 -141.64588737 198.25903893 C-142.67451885 194.8456047 -143.68337331 191.42667954 -144.6919384 188.00726891 C-145.37815549 185.71912335 -146.06564109 183.43135781 -146.7544384 181.14398766 C-148.54377874 175.18712689 -150.31549764 169.22537904 -152.0669384 163.25726891 C-152.27789146 162.54824425 -152.48884453 161.83921959 -152.70619011 161.10870934 C-154.67101747 154.42096853 -155.76948838 146.6905322 -152.4419384 140.25726891 C-147.64067526 134.19251547 -141.72654618 132.24119348 -134.57108879 130.16034508 C-133.63180031 129.8783979 -132.69251183 129.59645073 -131.72476006 129.3059597 C-128.62413781 128.37781135 -125.51947522 127.46402956 -122.41459465 126.55023766 C-120.23597601 125.90101803 -118.05763047 125.25088134 -115.87954521 124.5998745 C-110.13544327 122.88560503 -104.38784301 121.18337376 -98.63938713 119.48377037 C-92.87166655 117.77643201 -87.10706682 116.05863068 -81.34232903 114.34125328 C-74.8177432 112.39787406 -68.29292003 110.45535824 -61.76543999 108.52171898 C-60.7667662 108.22567929 -59.7680924 107.92963961 -58.73915577 107.62462902 C-56.77544233 107.04260385 -54.81157142 106.46110966 -52.84753323 105.88018131 C-47.75679116 104.37013895 -42.67601452 102.83270637 -37.60474968 101.25839806 C-36.55193778 100.93280812 -35.49912588 100.60721819 -34.41441059 100.27176189 C-32.40110674 99.64756664 -30.3892428 99.01870168 -28.37908077 98.3844614 C-27.47789737 98.10536584 -26.57671396 97.82627028 -25.64822197 97.53871727 C-24.85777709 97.29068006 -24.06733221 97.04264284 -23.25293446 96.78708935 C-21.0669384 96.25726891 -21.0669384 96.25726891 -17.0669384 96.25726891 C-17.07693115 94.73963196 -17.07693115 94.73963196 -17.08712578 93.19133568 C-17.14801853 83.64277304 -17.19295022 74.09424996 -17.22237492 64.54553699 C-17.23801115 59.63678374 -17.25921213 54.72818761 -17.29325676 49.81952477 C-17.32592302 45.07977892 -17.34380678 40.34018393 -17.35157013 35.60033417 C-17.3571006 33.79468029 -17.36790027 31.9890344 -17.38412857 30.18344498 C-17.40599959 27.6485472 -17.40890131 25.11426779 -17.40751457 22.57929039 C-17.4183004 21.83769676 -17.42908623 21.09610313 -17.4401989 20.33203697 C-17.40200514 13.85294788 -15.89735978 9.36929358 -11.6294384 4.44476891 C-7.74321675 1.12726262 -5.11431696 0.00811106 0 0 Z " fill="#010000" transform="translate(154.06693840026855,-0.25726890563964844)"/>
<path d="M0 0 C0.00054477 0.83360581 0.00108953 1.66721163 0.00165081 2.52607822 C0.01662246 22.81583211 0.05908487 43.10536637 0.13209057 63.3949976 C0.16673382 73.2069605 0.19209522 83.01878301 0.19555664 92.83081055 C0.19859746 101.38365887 0.21910374 109.93625711 0.26052457 118.48900884 C0.28184562 123.01709223 0.29445981 127.54482016 0.28615379 132.07295418 C0.27860794 136.33719035 0.29445768 140.60070664 0.32806015 144.86481094 C0.33628704 146.42764223 0.3360508 147.99054518 0.32659721 149.55336952 C0.00798518 158.8232672 0.00798518 158.8232672 3.16621399 167.29734802 C8.96094853 172.82393003 13.67190124 173.44416106 21.33837891 173.40405273 C22.2594191 173.41091599 23.18045929 173.41777924 24.12940979 173.42485046 C27.1619525 173.44309436 30.1939769 173.43928559 33.2265625 173.43359375 C35.33832975 173.43815551 37.45009552 173.44346107 39.56185913 173.44947815 C43.98173059 173.45840362 48.40142128 173.45599107 52.82128906 173.44604492 C58.48874756 173.4345346 64.15558491 173.45480144 69.82296181 173.48396206 C74.18095873 173.50229087 78.53880573 173.50203859 82.89683151 173.49632454 C84.98684945 173.49617103 87.07687737 173.50223951 89.16685867 173.51461601 C92.08510874 173.52946763 95.00219686 173.51889313 97.92041016 173.50170898 C98.78492294 173.51137695 99.64943573 173.52104492 100.54014587 173.53100586 C105.38363466 173.48996081 105.38363466 173.48996081 109.50497437 171.09364319 C111.02482029 169.08021529 111.02482029 169.08021529 112 167 C115.10367497 166.85484323 118.20648027 166.76599147 121.3125 166.6875 C122.63411133 166.6246582 122.63411133 166.6246582 123.98242188 166.56054688 C126.41801685 166.51424279 128.61106652 166.51690328 131 167 C132.98046875 169.45703125 132.98046875 169.45703125 134 172 C137.06799121 173.53399561 140.29402268 173.17947954 143.66259766 173.20532227 C144.45292892 173.21522186 145.24326019 173.22512146 146.05754089 173.23532104 C148.6763507 173.26697122 151.29517866 173.29170733 153.9140625 173.31640625 C155.72724892 173.33697274 157.54043052 173.35796913 159.35360718 173.37937927 C164.13098242 173.43463142 168.90840115 173.48402682 173.68585205 173.53222656 C178.55883668 173.58241866 183.43175798 173.63811667 188.3046875 173.69335938 C197.8697376 173.80097938 207.43484262 173.90241581 217 174 C222.55580866 191.85649203 222.55580866 191.85649203 223 200 C216.38811428 202.02720374 209.77593666 204.05345335 203.16357422 206.07910156 C200.92360123 206.7654157 198.68369027 207.45193236 196.44384766 208.13867188 C185.3332398 211.54506173 174.22103048 214.94392666 163.0859375 218.26953125 C156.32276267 220.29005394 149.58736455 222.37831788 142.875 224.5625 C135.56750548 226.91576095 128.2388511 229.0863698 120.82763672 231.08618164 C114.82904669 232.72379273 108.91624976 234.58800698 103 236.5 C95.71523542 238.85264026 88.41814912 241.05251987 81.02846241 243.0497427 C75.11383509 244.66022328 69.25114382 246.4183369 63.39135742 248.21704102 C61.34378271 248.842813 59.29612193 249.46830341 57.24838257 250.09353638 C56.20946743 250.41088367 55.17055229 250.72823097 54.10015488 251.05519485 C49.25252776 252.53256074 44.40070952 253.99589675 39.5480957 255.45678711 C38.59139071 255.74480981 37.63468573 256.03283251 36.64898968 256.32958317 C28.2262351 258.8638061 19.80172479 261.39218612 11.37653828 263.91831112 C5.74381773 265.60722313 0.11178269 267.2983538 -5.51879883 268.99438477 C-11.02923605 270.65417009 -16.54124354 272.30863649 -22.05442238 273.95929146 C-24.14221509 274.5853726 -26.22943966 275.21335159 -28.31607628 275.84327507 C-31.21141142 276.71695207 -34.10871045 277.58378697 -37.0065918 278.44897461 C-38.29135155 278.83923576 -38.29135155 278.83923576 -39.60206604 279.23738098 C-40.78471542 279.5882225 -40.78471542 279.5882225 -41.99125671 279.94615173 C-42.67300807 280.15091598 -43.35475943 280.35568022 -44.05716991 280.56664944 C-46 281 -46 281 -50 281 C-56.17540107 262.25676993 -61.82992398 243.36384066 -67.45532227 224.44970703 C-70.75271758 213.3807765 -74.11353665 202.33945999 -77.66981506 191.35054016 C-79.41649767 185.93365278 -81.01955852 180.49548311 -82.5 175 C-84.57914802 167.32823367 -86.94935117 159.77280343 -89.40527344 152.21362305 C-91.60863559 145.38211439 -93.58044318 138.51096183 -95.31445312 131.54492188 C-96.51227537 126.50173263 -96.51227537 126.50173263 -100 123 C-101.15371094 122.77054687 -102.30742188 122.54109375 -103.49609375 122.3046875 C-107 121 -107 121 -108.06689453 119.41113281 C-108.89119439 117.33569114 -109.50207627 115.28636113 -110.0625 113.125 C-110.28615234 112.40441406 -110.50980469 111.68382812 -110.74023438 110.94140625 C-111.64200429 107.7924605 -112.22244897 105.63472106 -111.12109375 102.4921875 C-110.75113281 101.99976563 -110.38117188 101.50734375 -110 101 C-109.34 101 -108.68 101 -108 101 C-106.48670509 93.076392 -107.92086433 87.46191521 -110.4375 79.88671875 C-110.97588501 78.18875908 -110.97588501 78.18875908 -111.52514648 76.45649719 C-112.66704404 72.86134095 -113.83166226 69.27414276 -115 65.6875 C-116.16577373 62.08229909 -117.3263687 58.47569174 -118.47485352 54.86494446 C-119.18861778 52.62338621 -119.91273723 50.38509357 -120.64819336 48.15055847 C-120.97182861 47.13883072 -121.29546387 46.12710297 -121.62890625 45.0847168 C-122.0631189 43.75309761 -122.0631189 43.75309761 -122.50610352 42.39457703 C-123.04292117 39.79190366 -123.09129091 38.42166563 -122 36 C-119.30086937 34.78030121 -116.81492665 33.85537683 -114 33 C-113.25299835 32.76146301 -112.5059967 32.52292603 -111.73635864 32.27716064 C-109.30039834 31.50951412 -106.8569603 30.77138077 -104.41015625 30.0390625 C-103.0559684 29.63039444 -103.0559684 29.63039444 -101.67442322 29.21347046 C-98.80453075 28.34813849 -95.93352286 27.48657307 -93.0625 26.625 C-91.17115362 26.0549208 -89.27987701 25.48461009 -87.38867188 24.9140625 C-77.47690658 21.92713275 -67.55521377 18.97596917 -57.62133789 16.06347656 C-53.1381829 14.74691058 -48.66149328 13.40981 -44.1875 12.0625 C-42.50651462 11.55727768 -40.8255249 11.0520698 -39.14453125 10.546875 C-38.30229004 10.29357422 -37.46004883 10.04027344 -36.59228516 9.77929688 C-32.18712931 8.45501194 -27.78101285 7.13393022 -23.375 5.8125 C-21.79947476 5.33985844 -20.22395378 4.86720268 -18.6484375 4.39453125 C-17.89401367 4.16975098 -17.13958984 3.9449707 -16.36230469 3.71337891 C-14.68243103 3.20608345 -13.0063411 2.68618425 -11.33300781 2.15771484 C-10.45225586 1.88266113 -9.57150391 1.60760742 -8.6640625 1.32421875 C-7.86693848 1.07115967 -7.06981445 0.81810059 -6.24853516 0.55737305 C-4 0 -4 0 0 0 Z " fill="#DCA84A" transform="translate(138,112)"/>
<path d="M0 0 C1.29549774 -0.00845947 2.59099548 -0.01691895 3.92575073 -0.02563477 C5.35943729 -0.01980198 6.79312261 -0.01365748 8.22680664 -0.00723267 C9.73813252 -0.01129819 11.24945543 -0.01663996 12.76077271 -0.02316284 C16.86405341 -0.03684465 20.96710793 -0.03153429 25.07039261 -0.02202559 C29.36334088 -0.01443345 33.65626972 -0.02147336 37.94921875 -0.02618408 C45.15864542 -0.03164294 52.3679799 -0.02444663 59.57739258 -0.01016235 C67.91398601 0.00616444 76.25035934 0.00087602 84.58694744 -0.01564157 C91.74288919 -0.02925275 98.89876465 -0.03117791 106.05471516 -0.02332556 C110.32939067 -0.01864701 114.60396271 -0.01802917 118.87863159 -0.02793503 C122.89732041 -0.03659708 126.91572527 -0.03059688 130.93438339 -0.01325226 C132.40980431 -0.00928332 133.88524911 -0.01042844 135.36066055 -0.01704025 C137.37340699 -0.02522887 139.3862056 -0.01314286 141.39892578 0 C143.08907555 0.00169662 143.08907555 0.00169662 144.81336975 0.00342751 C148.05805758 0.4278579 149.45019109 1.02080104 151.69946289 3.38095093 C152.48101629 8.85182471 152.48101629 8.85182471 151.69946289 11.38095093 C147.94924273 15.05025573 145.5226338 15.88323581 140.32336426 15.90234375 C139.03635117 15.91651337 137.74933807 15.93068298 136.42332458 15.94528198 C135.00430157 15.94069474 133.58527989 15.9356754 132.16625977 15.93026733 C130.66625453 15.93896529 129.16625819 15.94933284 127.66627502 15.96124268 C123.598083 15.98800336 119.53026277 15.9891826 115.46199989 15.98411608 C112.06474618 15.98197572 108.66756757 15.9917455 105.27032995 16.00132692 C97.25625324 16.02350965 89.24236403 16.02439582 81.22827148 16.01229858 C72.9613554 16.00021167 64.69511949 16.02486022 56.42831945 16.06743872 C49.32836743 16.10266226 42.22863202 16.11467507 35.12859583 16.10816324 C30.88896338 16.1045364 26.64981637 16.10982013 22.41026306 16.13759232 C18.42413449 16.16272818 14.43906734 16.158884 10.45295525 16.13277054 C8.99084554 16.1280353 7.52866137 16.13352235 6.06663704 16.15001678 C-4.91146085 16.2649343 -4.91146085 16.2649343 -8.30152893 14.10755539 C-10.62944828 11.49682453 -11.29469336 9.67898221 -11.36303711 6.19345093 C-9.22734906 0.54015903 -5.67014413 0.00569183 0 0 Z " fill="#030001" transform="translate(248.300537109375,162.61904907226563)"/>
<path d="M0 0 C0.96951599 -0.00700928 1.93903198 -0.01401855 2.93792725 -0.02124023 C6.14380505 -0.03885042 9.34880066 -0.02718639 12.5546875 -0.01367188 C14.78141449 -0.01636591 17.00814033 -0.02024759 19.23486328 -0.02526855 C23.90213214 -0.03116772 28.56909484 -0.02258691 33.23632812 -0.00390625 C39.22222258 0.0188832 45.20739969 0.00576241 51.19326782 -0.01819611 C55.79147762 -0.03264258 60.38951704 -0.0280533 64.98773193 -0.01768494 C67.19496749 -0.01501448 69.40221847 -0.01829855 71.60943604 -0.02760315 C74.69316651 -0.0377495 77.77573145 -0.02229371 80.859375 0 C81.77378357 -0.00809692 82.68819214 -0.01619385 83.63031006 -0.02453613 C89.79269719 0.05809926 89.79269719 0.05809926 92.99267578 2.36633301 C94.99435867 5.36290602 95.07891576 6.98289095 94.4296875 10.51757812 C92.42761854 13.25000844 90.82162918 15.19664667 87.41931152 15.98109818 C84.91570642 16.169495 82.45593971 16.19308451 79.9453125 16.16455078 C78.52248962 16.17769318 78.52248962 16.17769318 77.07092285 16.19110107 C73.94004374 16.21308137 70.8105806 16.1985467 67.6796875 16.18164062 C65.50162485 16.18500914 63.32356403 16.18986205 61.14550781 16.19613647 C56.58250009 16.20350598 52.01998202 16.19279935 47.45703125 16.16943359 C41.60899888 16.14094631 35.76211381 16.15734979 29.91412354 16.18729591 C25.41706706 16.20536647 20.92028245 16.19961185 16.42321777 16.18665695 C14.26704777 16.1833223 12.11085306 16.18741207 9.95471191 16.19905472 C6.94049739 16.21175896 3.92813882 16.19239134 0.9140625 16.16455078 C-0.42174866 16.17973251 -0.42174866 16.17973251 -1.7845459 16.19522095 C-6.19789367 16.11972749 -8.022178 15.93868517 -11.62792969 13.16854858 C-13.5703125 10.51757812 -13.5703125 10.51757812 -14.1328125 7.45507812 C-12.6154546 -0.46890201 -6.72477364 -0.05954666 0 0 Z " fill="#030001" transform="translate(204.5703125,125.482421875)"/>
<path d="M0 0 C0.78419815 -0.00700928 1.5683963 -0.01401855 2.37635803 -0.02124023 C4.96545955 -0.03882832 7.55346573 -0.02719518 10.14257812 -0.01367188 C11.94332082 -0.01636657 13.74406209 -0.0202488 15.5447998 -0.02526855 C19.31760521 -0.03116468 23.09003164 -0.02259707 26.86279297 -0.00390625 C31.69859736 0.01888351 36.53351377 0.00576102 41.36928558 -0.01819611 C45.08736867 -0.03265106 48.80524126 -0.02804952 52.52333069 -0.01768494 C54.30632126 -0.01501681 56.08933095 -0.01829045 57.87229919 -0.02760315 C60.36459969 -0.03776399 62.85546281 -0.02227559 65.34765625 0 C66.08440079 -0.00809692 66.82114532 -0.01619385 67.58021545 -0.02453613 C70.97801838 0.0317193 72.86286266 0.28776099 75.62780762 2.33117676 C77.91085737 5.55989401 77.79271238 7.66674274 77.17382812 11.51757812 C74.37243209 14.50199009 72.68565455 15.44372467 68.60705566 16.03224182 C67.21614269 16.05888169 65.82470352 16.06376001 64.43359375 16.05102539 C63.67036301 16.05964096 62.90713226 16.06825653 62.12077332 16.07713318 C59.60685979 16.0997701 57.09406299 16.09305947 54.58007812 16.08398438 C52.82799957 16.08922071 51.07592384 16.09549722 49.32385254 16.10276794 C45.65538244 16.11316768 41.98730035 16.10861651 38.31884766 16.09399414 C33.62090789 16.07679973 28.92419042 16.10031119 24.22638702 16.13548374 C20.60947588 16.15745723 16.99285731 16.15601657 13.37590027 16.14771843 C11.6439632 16.14689901 9.91200464 16.15376064 8.18013 16.16848946 C5.75734565 16.18593712 3.33675894 16.17139447 0.9140625 16.14868164 C-0.15525261 16.16621994 -0.15525261 16.16621994 -1.24617004 16.18411255 C-5.09639424 16.11077856 -6.72470862 15.59837541 -9.77478027 13.16954041 C-11.82617188 10.51757812 -11.82617188 10.51757812 -12.38867188 7.45507812 C-11.04903128 0.45917724 -6.27877048 -0.06900455 0 0 Z " fill="#030001" transform="translate(262.826171875,51.482421875)"/>
<path d="M0 0 C1.08851509 -0.00810448 1.08851509 -0.00810448 2.19902039 -0.01637268 C4.59338396 -0.02886136 6.98654535 -0.01236934 9.38085938 0.00561523 C11.04707909 0.00546025 12.71329917 0.00397133 14.3795166 0.00120544 C17.8698726 -0.0001786 21.35981771 0.01238011 24.85009766 0.03515625 C29.32260096 0.06354115 33.79442158 0.06080376 38.2669754 0.04806614 C41.70711084 0.04110893 45.14708867 0.04889868 48.58720398 0.06132317 C50.23621516 0.06583727 51.88524327 0.06617482 53.53425598 0.06225777 C55.83959597 0.05934506 58.14399741 0.0758541 60.44921875 0.09765625 C62.41634827 0.10576073 62.41634827 0.10576073 64.42321777 0.11402893 C67.90637024 0.52305303 69.36599387 0.93356983 71.72460938 3.50170898 C72.50616277 8.97258277 72.50616277 8.97258277 71.72460938 11.50170898 C67.77208718 15.4634655 65.05152383 16.00547127 59.53515625 16.01928711 C58.83044693 16.02629639 58.12573761 16.03330566 57.39967346 16.04052734 C55.08049599 16.05806902 52.76254829 16.04649946 50.44335938 16.03295898 C48.82580329 16.03565503 47.20824879 16.03953839 45.59069824 16.04455566 C42.20467664 16.05044548 38.81907783 16.0419048 35.43310547 16.02319336 C31.0984812 16.00040364 26.76484764 16.01352956 22.4302597 16.03748322 C19.09129405 16.05195544 15.75256228 16.04732878 12.41358948 16.03697205 C10.81563702 16.03430867 9.21766316 16.03756083 7.61973572 16.04689026 C5.38394136 16.05707995 3.14973866 16.0415239 0.9140625 16.01928711 C-0.35659058 16.01610474 -1.62724365 16.01292236 -2.93640137 16.00964355 C-6.87046107 15.41118553 -8.54631255 14.36239356 -11.27539062 11.50170898 C-11.89723437 7.63245902 -12.02309971 5.53656591 -9.69494629 2.3143158 C-6.36775003 -0.17824873 -4.13512609 0.00052396 0 0 Z " fill="#030001" transform="translate(328.275390625,125.498291015625)"/>
<path d="M0 0 C1.80735123 -0.0238678 1.80735123 -0.0238678 3.6512146 -0.04821777 C4.95434601 -0.04841919 6.25747742 -0.04862061 7.60009766 -0.04882812 C8.9514701 -0.05593008 10.30283952 -0.06362913 11.65420532 -0.07189941 C14.48716611 -0.08534814 17.31984825 -0.08691193 20.15283203 -0.08105469 C23.77698956 -0.07516456 27.39980462 -0.10571661 31.02370262 -0.14617157 C33.81537025 -0.17207186 36.60671588 -0.17492389 39.39848709 -0.17127991 C41.38213709 -0.17378959 43.36571902 -0.19847777 45.34921265 -0.22351074 C55.363401 -0.14657396 55.363401 -0.14657396 58.48925781 2.765625 C60.13916016 5.41992188 60.13916016 5.41992188 60.26416016 8.48242188 C58.86083346 12.14666381 57.39164925 13.26910405 54.13916016 15.41992188 C51.33166504 15.9413147 51.33166504 15.9413147 48.23486328 15.96923828 C47.07015503 15.98830231 45.90544678 16.00736633 44.70544434 16.02700806 C43.45638306 16.02518524 42.20732178 16.02336243 40.92041016 16.02148438 C38.98445984 16.03433975 38.98445984 16.03433975 37.00939941 16.04745483 C34.28246592 16.06234501 31.55605047 16.06182187 28.82910156 16.05126953 C25.341474 16.03966954 21.85596729 16.07357358 18.36869049 16.11995888 C15.03167558 16.15657227 11.69512474 16.14906236 8.35791016 16.14648438 C7.10884888 16.16490387 5.8597876 16.18332336 4.57287598 16.20230103 C-3.81160692 16.1126216 -3.81160692 16.1126216 -6.78833008 14.1473999 C-9.14062829 11.50080779 -9.86083984 9.77377259 -9.86083984 6.23242188 C-7.91984683 0.77337903 -5.64914981 0.04478818 0 0 Z " fill="#030001" transform="translate(262.86083984375,88.580078125)"/>
<path d="M0 0 C0.96787949 -0.00945648 1.93575897 -0.01891296 2.93296814 -0.02865601 C4.49864281 -0.01954697 4.49864281 -0.01954697 6.09594727 -0.01025391 C7.70675926 -0.01455917 7.70675926 -0.01455917 9.35011292 -0.01895142 C11.6222486 -0.02099382 13.8944018 -0.01545169 16.16650391 -0.00292969 C19.64533853 0.01310517 23.12300851 -0.00276502 26.60180664 -0.02197266 C28.80818942 -0.01998995 31.01457147 -0.01614571 33.22094727 -0.01025391 C34.26270615 -0.0163266 35.30446503 -0.02239929 36.37779236 -0.02865601 C37.83433983 -0.01447128 37.83433983 -0.01447128 39.3203125 0 C40.59913551 0.00358017 40.59913551 0.00358017 41.90379333 0.00723267 C44.793589 0.481529 46.15653498 1.32798957 48.22485352 3.38818359 C49.00640691 8.85905738 49.00640691 8.85905738 48.22485352 11.38818359 C45.20977722 14.74441172 42.79080895 15.66783292 38.42211914 15.9375 C36.49211237 15.97730024 34.56151732 15.99331276 32.63110352 15.98974609 C31.60682251 15.99831635 30.5825415 16.0068866 29.52722168 16.01571655 C27.36542717 16.02718305 25.20355551 16.02821838 23.04174805 16.01953125 C19.73556056 16.01320408 16.43294309 16.06016388 13.12719727 16.11083984 C11.02433719 16.11538551 8.92146751 16.11679297 6.81860352 16.11474609 C5.83202759 16.13316559 4.84545166 16.15158508 3.82897949 16.17056274 C-2.8133906 16.08105327 -2.8133906 16.08105327 -5.54150391 14.11566162 C-7.92191964 11.43181263 -8.77514648 9.80939224 -8.77514648 6.20068359 C-7.04496652 1.33455244 -5.12196779 0.01435276 0 0 Z " fill="#030001" transform="translate(351.775146484375,88.61181640625)"/>
<path d="M0 0 C0.76171509 -0.0038269 1.52343018 -0.00765381 2.30822754 -0.01159668 C3.91529668 -0.01431313 5.52241024 -0.00697044 7.12939453 0.00976562 C9.58596587 0.03118214 12.03961311 0.00995822 14.49609375 -0.015625 C16.05990227 -0.01298167 17.62370898 -0.00785658 19.1875 0 C20.28608337 -0.01214539 20.28608337 -0.01214539 21.40686035 -0.02453613 C24.85358296 0.03867499 26.76439196 0.28351206 29.55273438 2.38085938 C31.09375 4.53125 31.09375 4.53125 31.65625 7.46875 C30.89212402 11.62899146 29.37241908 12.90646053 26.09375 15.53125 C23.3688962 16.03242036 21.27748559 16.23570211 18.5625 16.1953125 C17.84896362 16.20009613 17.13542725 16.20487976 16.40026855 16.20980835 C14.89751978 16.2131981 13.39469634 16.20406008 11.89208984 16.18310547 C9.59955525 16.15631783 7.31191466 16.18287531 5.01953125 16.21484375 C3.55467676 16.21153948 2.0898253 16.20513286 0.625 16.1953125 C-0.39551453 16.21049423 -0.39551453 16.21049423 -1.43664551 16.22598267 C-5.24153641 16.13288883 -6.83530942 15.58804258 -9.84179688 13.18115234 C-11.90625 10.53125 -11.90625 10.53125 -12.46875 7.46875 C-11.12408258 0.44659791 -6.30352946 -0.06968865 0 0 Z " fill="#030001" transform="translate(202.90625,88.46875)"/>
<path d="M0 0 C1.91135742 0.00580078 1.91135742 0.00580078 3.86132812 0.01171875 C4.51963623 0.02412598 5.17794434 0.0365332 5.85620117 0.04931641 C7.86884118 0.08589656 9.87963979 0.09033489 11.89257812 0.08984375 C22.97087035 0.19081046 22.97087035 0.19081046 26.30859375 2.4609375 C28.6360872 5.95217767 28.81158691 7.35316001 28.30859375 11.4609375 C26.75195312 13.61694336 26.75195312 13.61694336 24.30859375 15.4609375 C21.67716216 15.87139424 19.469248 16.04628177 16.83984375 16.02734375 C15.76385925 16.03664162 15.76385925 16.03664162 14.6661377 16.04612732 C13.15325271 16.05321447 11.64028955 16.05007058 10.12744141 16.03735352 C7.81527049 16.02347757 5.50714217 16.05757442 3.1953125 16.09570312 C1.72265526 16.09665432 0.24999297 16.09479545 -1.22265625 16.08984375 C-2.25561829 16.10973106 -2.25561829 16.10973106 -3.30944824 16.13002014 C-6.99794916 16.05862184 -8.44622647 15.69467005 -11.15429688 13.11303711 C-12.69140625 10.4609375 -12.69140625 10.4609375 -12.75390625 7.3984375 C-10.50213746 1.17295907 -6.21211028 -0.0438836 0 0 Z " fill="#050002" transform="translate(287.69140625,218.5390625)"/>
<path d="M0 0 C0.85464844 -0.01546875 1.70929688 -0.0309375 2.58984375 -0.046875 C6.51806556 -0.02236192 8.79820474 0.01910114 12.09375 2.27734375 C13.65651349 4.74737827 13.93953136 5.71104031 13.5 8.5625 C13.4175 9.23410156 13.335 9.90570313 13.25 10.59765625 C12.16078572 13.36040289 11.14649959 14.12012937 8.5 15.5 C5.58909968 15.84687988 2.96909668 16.0099286 0.0625 16 C-0.68837891 16.02835938 -1.43925781 16.05671875 -2.21289062 16.0859375 C-6.43808374 16.10080186 -8.05351681 15.84823363 -11.5 13.16015625 C-13.5 10.5 -13.5 10.5 -14.0625 7.4375 C-12.55627793 -0.42832639 -6.70269286 -0.12131571 0 0 Z " fill="#040001" transform="translate(204.5,162.5)"/>
</svg>
